<?xml version="1.0"?><svg fill="#000000" xmlns="http://www.w3.org/2000/svg"  viewBox="0 0 50 50" width="96px" height="96px">    <path d="M 23.5 0 C 11.085547 0 1 10.085547 1 22.5 C 1 34.914453 11.085547 45 23.5 45 C 28.390351 45 30.427778 44 34 44 C 42.292857 44 47.248047 49.658203 47.248047 49.658203 A 1.0001 1.0001 0 0 0 48.914062 48.59375 C 48.914062 48.59375 48.161111 46.953128 46.095703 45.132812 C 44.030295 43.312498 40.608508 41.216083 35.195312 39.962891 A 1.0001 1.0001 0 0 0 35.191406 39.960938 C 35.146796 39.950798 35.061935 39.923202 34.900391 39.882812 A 1.0001 1.0001 0 0 0 34.896484 39.880859 C 31.767571 39.107811 29.75153 37.872906 28.4375 36.658203 A 1.0001 1.0001 0 0 0 28.4375 36.65625 C 28.165789 36.40551 27.922925 36.156763 27.707031 35.910156 A 1.0001 1.0001 0 0 0 27.707031 35.908203 C 26.210373 34.203173 25.984375 32.822266 25.984375 32.822266 A 1.0001 1.0001 0 0 0 24 33.001953 C 24 33.001953 24.015605 33.170072 24.015625 33.177734 L 24.015625 33.179688 C 24.015855 33.301575 24.135883 34.671554 24.269531 35.945312 C 24.013423 35.962659 23.754833 36 23.5 36 C 16.03246 36 10 29.96754 10 22.5 C 10 15.03246 16.03246 9 23.5 9 C 30.96754 9 37 15.03246 37 22.5 C 37 23.087245 36.90502 23.652956 36.830078 24.222656 C 35.598488 24.106907 34.303523 24.010232 34.167969 24.015625 C 34.151644 24.015319 34.005859 24 34.005859 24 L 34.005859 24.003906 C 34.005312 24.003937 33.958984 24 33.958984 24 A 1.0001545 1.0001545 0 0 0 33.994141 26 C 33.994141 26 35.53865 26.01758 37.162109 26.78125 C 37.43839 26.911211 37.70375 27.052838 37.958984 27.216797 C 41.132255 29.256756 41.791016 32.220703 41.791016 32.220703 A 1.0001 1.0001 0 0 0 43.664062 32.443359 C 45.146383 29.446306 46 26.074102 46 22.5 C 46 10.085547 35.914453 0 23.5 0 z M 23.5 2 C 34.833547 2 44 11.166453 44 22.5 C 44 24.929049 43.451299 27.196206 42.669922 29.355469 C 41.960846 28.140395 40.849759 26.695967 39.041016 25.533203 C 38.93162 25.462929 38.827292 25.419845 38.71875 25.357422 C 38.892039 24.43257 39 23.48092 39 22.5 C 39 13.95154 32.04846 7 23.5 7 C 14.95154 7 8 13.95154 8 22.5 C 8 31.04846 14.95154 38 23.5 38 C 24.186234 38 24.844806 37.94158 25.478516 37.861328 A 1.0001 1.0001 0 0 0 26.261719 37.287109 C 26.509984 37.566683 26.777528 37.847754 27.080078 38.126953 C 28.650048 39.57825 30.99887 40.977412 34.417969 41.822266 C 34.472279 41.836066 34.574115 41.873189 34.744141 41.912109 C 34.972825 41.965049 35.082065 42.053533 35.302734 42.109375 C 34.863551 42.079619 34.457496 42 34 42 C 30.072222 42 28.109649 43 23.5 43 C 12.166453 43 3 33.833547 3 22.5 C 3 11.166453 12.166453 2 23.5 2 z M 38.634766 32.001953 C 38.389703 31.987 38.19875 32.093594 38.09375 32.277344 C 37.88175 32.648344 38.039797 33.383437 38.466797 34.023438 C 38.899797 34.671437 39.266594 35 39.558594 35 C 39.826594 35 40.09475 34.664516 39.96875 33.853516 C 39.89375 33.369516 39.611484 32.317594 38.896484 32.058594 C 38.803984 32.025094 38.716453 32.006937 38.634766 32.001953 z M 35.367188 35 C 34.918187 35 34.544453 35.116797 34.314453 35.341797 C 33.724453 35.919797 33.989578 36.9355 34.892578 37.5625 C 35.287578 37.8355 35.855109 38 36.412109 38 C 36.979109 38 37.453094 37.830438 37.746094 37.523438 C 38.271094 36.963438 37.969563 36.170906 36.976562 35.503906 C 36.484563 35.173906 35.912187 35 35.367188 35 z"/></svg>